{"title":"The Sins Of Thy Beloved - Perpetual Desolation Live - DVDRip","uid":4807169,"size":733853696,"categoryP":"video","categoryS":"music_videos","magnet":"?xt=urn:btih:af6c5aa4b14a86df23ca22446969764d9e88f28e&amp;dn=The+Sins+Of+Thy+Beloved+-+Perpetual+Desolation+Live+-+DVDRip&amp;tr=udp%3A%2F%2Ftracker.openbittorrent.com%3A80&amp;tr=udp%3A%2F%2Fopen.demonii.com%3A1337&amp;tr=udp%3A%2F%2Ftracker.coppersurfer.tk%3A6969&amp;tr=udp%3A%2F%2Fexodus.desync.com%3A6969","seeders":1,"leechers":1,"uploader":"Atommy","files":1,"time":1238199139,"description":"-==The Sins Of Thy Beloved - 2001 - Perpetual Desolation Live - DVDRip==-\n\n\nFormat                           : AVI\nFormat/Info                      : Audio Video Interleave\nFile size                        : 700 MiB\nDuration                         : 1h 0mn\nOverall bit rate                 : 1 611 Kbps\nWriting application              : FairUse Wizard - http://fairusewizard.com\n\nVideo\nFormat                           : MPEG-4 Visual\nFormat profile                   : Simple@L3\nCodec ID                         : XVID\nDuration                         : 1h 0mn\nBit rate                         : 1 471 Kbps\nWidth                            : 640 pixels\nHeight                           : 464 pixels\nDisplay aspect ratio             : 1.379\nFrame rate                       : 29.970 fps\nResolution                       : 24 bits\nColorimetry                      : 4:2:0\nScan type                        : Progressive\nStream size                      : 639 MiB (91%)\n\nAudio\nFormat                           : MPEG Audio\nFormat profile                   : Layer 3\nCodec ID/Hint                    : MP3\nDuration                         : 1h 0mn\nBit rate mode                    : Constant\nBit rate                         : 128 Kbps\nChannel(s)                       : 2 channels\nSampling rate                    : 48.0 KHz\nResolution                       : 16 bits\nStream size                      : 55.6 MiB (8%)\nEncoding settings                : CBR\n\nSeed: 256 kbps","torrent":{"xt":"urn:btih:af6c5aa4b14a86df23ca22446969764d9e88f28e","amp;dn":"The+Sins+Of+Thy+Beloved+-+Perpetual+Desolation+Live+-+DVDRip","amp;tr":["udp%3A%2F%2Ftracker.openbittorrent.com%3A80","udp%3A%2F%2Fopen.demonii.com%3A1337","udp%3A%2F%2Ftracker.coppersurfer.tk%3A6969","udp%3A%2F%2Fexodus.desync.com%3A6969"],"infoHash":"af6c5aa4b14a86df23ca22446969764d9e88f28e","infoHashBuffer":{"type":"Buffer","data":[175,108,90,164,177,74,134,223,35,202,34,68,105,105,118,77,158,136,242,142]},"announce":[],"urlList":[]}}